HIERARCHY
ROOT Hips
{
	OFFSET 0.000000 0.000000 0.000000 
	CHANNELS 6 Xposition Yposition Zposition Zrotation Yrotation Xrotation
	JOINT LeftUpLeg
	{
		OFFSET 1.363060 -1.794630 0.839290 
		CHANNELS 3 Zrotation Yrotation Xrotation
		JOINT LeftLeg
		{
			OFFSET 2.448110 -6.726130 0.000000 
			CHANNELS 3 Zrotation Yrotation Xrotation
			JOINT LeftFoot
			{
				OFFSET 2.562200 -7.039590 0.000000 
				CHANNELS 3 Zrotation Yrotation Xrotation
				JOINT LeftToeBase
				{
					OFFSET 0.157640 -0.433110 2.322550 
					CHANNELS 3 Zrotation Yrotation Xrotation
					End Site
					{
						OFFSET 0.000000 0.000000 0.000000 
					}
				}
			}
		}
	}
	JOINT RightUpLeg
	{
		OFFSET -1.305520 -1.794630 0.839290 
		CHANNELS 3 Zrotation Yrotation Xrotation
		JOINT RightLeg
		{
			OFFSET -2.542530 -6.985550 0.000000 
			CHANNELS 3 Zrotation Yrotation Xrotation
			JOINT RightFoot
			{
				OFFSET -2.568260 -7.056230 0.000000 
				CHANNELS 3 Zrotation Yrotation Xrotation
				JOINT RightToeBase
				{
					OFFSET -0.164730 -0.452590 2.363150 
					CHANNELS 3 Zrotation Yrotation Xrotation
					End Site
					{
						OFFSET 0.000000 0.000000 0.000000 
					}
				}
			}
		}
	}
	JOINT Spine
	{
		OFFSET 0.028270 2.035590 -0.193380 
		CHANNELS 3 Zrotation Yrotation Xrotation
		JOINT Spine1
		{
			OFFSET 0.056720 2.048850 -0.042750 
			CHANNELS 3 Zrotation Yrotation Xrotation
			JOINT Neck1
			{
				OFFSET -0.054170 1.746240 0.172020 
				CHANNELS 3 Zrotation Yrotation Xrotation
				JOINT Head
				{
					OFFSET 0.104070 1.761360 -0.123970 
					CHANNELS 3 Zrotation Yrotation Xrotation
					End Site
					{
						OFFSET 0.000000 0.000000 0.000000 
					}
				}
			}
			JOINT LeftArm
			{
				OFFSET 3.362410 1.200890 -0.311210 
				CHANNELS 3 Zrotation Yrotation Xrotation
				JOINT LeftForeArm
				{
					OFFSET 4.983000 -0.000000 -0.000000 
					CHANNELS 3 Zrotation Yrotation Xrotation
					JOINT LeftHand
					{
						OFFSET 3.483560 -0.000000 -0.000000 
						CHANNELS 3 Zrotation Yrotation Xrotation
						JOINT LeftHandIndex1
						{
							OFFSET 0.715260 -0.000000 -0.000000 
							CHANNELS 3 Zrotation Yrotation Xrotation
							End Site
							{
								OFFSET 0.000000 0.000000 0.000000 
							}
						}
					}
				}
			}
			JOINT RightArm
			{
				OFFSET -3.136600 1.374050 -0.404650 
				CHANNELS 3 Zrotation Yrotation Xrotation
				JOINT RightForeArm
				{
					OFFSET -5.241900 -0.000000 -0.000000 
					CHANNELS 3 Zrotation Yrotation Xrotation
					JOINT RightHand
					{
						OFFSET -3.444170 -0.000000 -0.000000 
						CHANNELS 3 Zrotation Yrotation Xrotation
						JOINT RightHandIndex1
						{
							OFFSET -0.622530 -0.000000 -0.000000 
							CHANNELS 3 Zrotation Yrotation Xrotation
							End Site
							{
								OFFSET 0.000000 0.000000 0.000000 
							}
						}
					}
				}
			}
		}
	}
}
MOTION
Frames: 13
Frame Time: 0.041667
0.400343 16.616659 -1.185085 0.375925 3.258958 -6.075786 -19.999897 -6.840582 -15.349296 5.187226 14.181577 45.500946 1.990527 -12.656715 -4.337135 0.078500 -1.807800 -4.974900 20.190698 7.741672 -13.305436 -6.581788 -15.042783 48.127906 -0.825372 -0.650230 -15.890142 -1.018500 6.420500 -18.009400 -0.424576 0.657449 15.087463 -0.623220 0.734917 1.310752 17.815122 -14.764410 -3.109890 8.932700 -7.509500 2.024100 -83.266028 -2.388360 24.904153 15.413154 -18.362988 -1.916146 0.161991 1.161003 -26.256790 -7.125000 0.000000 0.000000 52.656091 36.163732 14.949188 -141.848103 41.747883 -104.378426 -0.647796 1.110941 -47.203690 7.125000 0.000000 0.000000 
0.399900 16.617656 -1.184089 0.418810 3.316829 -6.041676 -20.046318 -6.865273 -15.379276 5.180959 14.181624 45.486144 1.987130 -12.686409 -4.274111 0.070300 -1.710600 -4.706400 20.133180 7.711819 -13.339320 -6.580118 -15.041231 48.121047 -0.827283 -0.647984 -15.906625 -1.014000 6.406800 -17.969300 -0.437021 0.665853 15.052474 -0.637131 0.743083 1.291652 17.818609 -14.808396 -3.069878 8.928700 -7.527600 2.058500 -83.259408 -2.397822 24.942858 15.385272 -18.323752 -1.908830 0.158427 1.164634 -26.258063 -7.125000 0.000000 0.000000 52.399553 36.521369 14.930213 -142.289854 41.410300 -104.734534 -0.635194 1.122406 -47.313013 7.125000 0.000000 0.000000 
0.399900 16.617766 -1.183978 0.375895 3.377896 -6.047125 -20.003052 -6.902672 -15.380064 5.178261 14.179961 45.476950 1.984798 -12.697191 -4.226770 0.072200 -1.733600 -4.770000 20.170793 7.659847 -13.328193 -6.575554 -15.034686 48.100856 -0.830506 -0.615425 -15.885078 -0.984700 6.316200 -17.704800 -0.433106 0.660094 15.016056 -0.686628 0.746360 1.240975 17.748564 -14.845980 -3.089042 8.888400 -7.543100 2.054000 -83.235505 -2.379517 25.028977 15.355799 -18.280636 -1.901435 0.160860 1.169915 -26.341250 -7.125000 0.000000 0.000000 52.178647 36.851586 14.895281 -142.617754 41.150445 -105.003039 -0.605641 1.144947 -47.246495 7.125000 0.000000 0.000000 
0.399457 16.617656 -1.184642 0.292395 3.434966 -6.086775 -19.915175 -6.933566 -15.361276 5.178717 14.177237 45.475820 1.980797 -12.711763 -4.147923 0.069100 -1.695600 -4.665200 20.271949 7.602053 -13.271096 -6.565874 -15.023533 48.066202 -0.819962 -0.681258 -15.885982 -1.000600 6.365400 -17.848500 -0.430421 0.648289 15.003646 -0.760040 0.747711 1.208400 17.751316 -14.874080 -3.204345 8.881800 -7.555800 2.020900 -83.192075 -2.390141 25.126306 15.306579 -18.208150 -1.887411 0.167396 1.167196 -26.422651 -7.125000 0.000000 0.000000 52.020458 37.186887 14.859049 -142.916751 40.907859 -105.247363 -0.572778 1.174343 -47.181524 7.125000 0.000000 0.000000 
0.398350 16.617766 -1.183425 0.299226 3.491341 -6.147670 -19.929702 -6.933838 -15.283102 5.176934 14.167090 45.461643 1.983659 -12.752495 -4.142275 0.063700 -1.628600 -4.480400 20.274459 7.528993 -13.175363 -6.558271 -15.009035 48.032992 -0.815174 -0.722878 -15.906642 -0.998900 6.360200 -17.833200 -0.413724 0.648194 15.017615 -0.743456 0.749096 1.197601 17.810118 -14.850393 -3.352330 8.911600 -7.544500 1.972500 -83.218805 -2.414749 25.034503 15.261560 -18.145097 -1.873365 0.170639 1.160745 -26.325743 -7.125000 0.000000 0.000000 51.762737 37.503426 14.964682 -143.296562 40.604816 -105.541605 -0.588641 1.187048 -47.308141 7.125000 0.000000 0.000000 
0.396800 16.619206 -1.181100 0.346589 3.534366 -6.152912 -19.984318 -6.923916 -15.252601 5.167722 14.156544 45.427388 1.982805 -12.751492 -4.139681 0.070300 -1.710400 -4.706100 20.226855 7.502099 -13.141045 -6.549672 -14.998061 47.998334 -0.809664 -0.749471 -15.892568 -0.998300 6.358600 -17.828500 -0.381792 0.669662 15.013246 -0.676252 0.758161 1.197352 17.903992 -14.808025 -3.506260 8.969900 -7.528100 1.914900 -83.293948 -2.402051 24.904595 15.237390 -18.112867 -1.865610 0.174277 1.154919 -26.187019 -7.125000 0.000000 0.000000 51.484756 37.768764 15.050559 -143.684392 40.294404 -105.842517 -0.598193 1.188098 -47.458207 7.125000 0.000000 0.000000 
0.394918 16.620534 -1.178775 0.350610 3.568430 -6.170774 -19.981097 -6.907790 -15.208540 5.152591 14.136914 45.367968 1.979576 -12.791759 -4.051029 0.062800 -1.617300 -4.449300 20.221180 7.462168 -13.104247 -6.544791 -14.989084 47.973783 -0.817803 -0.694485 -15.883672 -0.988800 6.329100 -17.742400 -0.370985 0.695524 15.039800 -0.673636 0.773061 1.227462 17.899331 -14.785093 -3.586465 8.960000 -7.513700 1.887400 -83.278603 -2.395272 24.894165 15.263944 -18.152126 -1.873152 0.173837 1.154565 -26.134959 -7.125000 0.000000 0.000000 51.262212 38.094333 15.024263 -143.931485 40.083675 -106.037002 -0.597643 1.200646 -47.539093 7.125000 0.000000 0.000000 
0.393700 16.623745 -1.177003 0.355451 3.638555 -6.178803 -19.987246 -6.918826 -15.179324 5.137162 14.120196 45.309940 1.977326 -12.839265 -3.968673 0.057800 -1.551700 -4.268100 20.210340 7.382079 -13.078273 -6.537957 -14.979071 47.946015 -0.816869 -0.721614 -15.920650 -1.001600 6.368600 -17.857800 -0.356058 0.704759 15.044200 -0.669469 0.779447 1.230201 17.877791 -14.766829 -3.771318 8.956900 -7.507400 1.806700 -83.259414 -2.346873 25.058831 15.314236 -18.224336 -1.889062 0.172876 1.158361 -26.242252 -7.125000 0.000000 0.000000 51.042015 38.301573 15.022885 -144.185340 39.875547 -106.229857 -0.596465 1.220685 -47.557984 7.125000 0.000000 0.000000 
0.394032 16.627177 -1.175675 0.397431 3.704232 -6.210673 -20.046519 -6.931629 -15.105381 5.122379 14.101961 45.254510 1.974585 -12.839292 -3.942848 0.055800 -1.523900 -4.191700 20.147643 7.296452 -13.036237 -6.536368 -14.968920 47.928519 -0.831089 -0.634807 -15.920113 -0.970200 6.270900 -17.572400 -0.346550 0.705036 15.054084 -0.651934 0.780586 1.221372 17.892375 -14.755501 -3.942125 8.973800 -7.503000 1.745800 -83.251835 -2.288778 25.218135 15.368399 -18.302423 -1.906759 0.168583 1.166564 -26.327608 -7.125000 0.000000 0.000000 50.849963 38.534487 15.133489 -144.448368 39.652699 -106.432889 -0.594621 1.236611 -47.440239 7.125000 0.000000 0.000000 
0.394032 16.628616 -1.175675 0.399772 3.716817 -6.214203 -20.052733 -6.909878 -15.092682 5.112624 14.091927 45.219232 1.970398 -12.791234 -3.937496 0.061800 -1.603800 -4.411800 20.146228 7.256369 -13.011595 -6.530445 -14.961451 47.906684 -0.816825 -0.702707 -15.885121 -0.973700 6.282000 -17.604800 -0.345030 0.710735 15.049793 -0.660164 0.785441 1.200148 17.955976 -14.708324 -4.166108 9.012600 -7.482500 1.661300 -83.237836 -2.258972 25.181110 15.386065 -18.327842 -1.911362 0.165260 1.164974 -26.253914 -7.125000 0.000000 0.000000 50.755153 38.804114 15.393233 -144.687922 39.439583 -106.618114 -0.603798 1.253442 -47.257075 7.125000 0.000000 0.000000 
0.393146 16.629170 -1.176117 0.439494 3.744732 -6.198770 -20.093383 -6.915808 -15.099463 5.102302 14.084819 45.186260 1.966091 -12.805757 -3.875134 0.058200 -1.556700 -4.282200 20.096126 7.218555 -13.022744 -6.529843 -14.958068 47.898769 -0.831650 -0.626005 -15.910040 -0.964800 6.254100 -17.523300 -0.352313 0.719584 15.044521 -0.645181 0.789962 1.186229 18.033030 -14.632083 -4.424254 9.059600 -7.450100 1.552400 -83.200661 -2.260272 25.216405 15.358631 -18.287283 -1.901982 0.164187 1.153247 -26.235097 -7.125000 0.000000 0.000000 50.664564 39.058297 15.648182 -144.899745 39.247663 -106.781824 -0.611048 1.270883 -47.064203 7.125000 0.000000 0.000000 
0.391707 16.629502 -1.175896 0.439749 3.785979 -6.189194 -20.089785 -6.914973 -15.113639 5.096136 14.080318 45.164060 1.965952 -12.824471 -3.849305 0.055800 -1.524500 -4.193300 20.089226 7.196863 -13.025602 -6.527235 -14.954338 47.885912 -0.839492 -0.576069 -15.906305 -0.936000 6.162500 -17.256700 -0.326831 0.736598 15.049666 -0.616879 0.798214 1.190217 18.008137 -14.542230 -4.627866 9.062500 -7.406600 1.456700 -83.230032 -2.304455 25.148922 15.309548 -18.218794 -1.886593 0.164820 1.143750 -26.095262 -7.125000 0.000000 0.000000 50.501234 39.228613 15.793423 -145.127763 39.051622 -106.952003 -0.608567 1.297410 -46.865051 7.125000 0.000000 0.000000 
0.391375 16.629723 -1.175453 0.442746 3.803404 -6.171055 -20.091506 -6.915122 -15.125158 5.089604 14.075346 45.140114 1.966865 -12.845627 -3.834096 0.056200 -1.530200 -4.209000 20.074716 7.183080 -13.047135 -6.524732 -14.952209 47.875168 -0.841428 -0.549322 -15.880114 -0.890900 6.016300 -16.831800 -0.314235 0.746567 15.053100 -0.615032 0.804511 1.208464 17.999532 -14.456063 -4.767687 9.072500 -7.362900 1.394300 -83.228705 -2.266770 25.273904 15.343223 -18.266889 -1.897318 0.169453 1.144519 -26.184087 -7.125000 0.000000 0.000000 50.337587 39.367072 15.924782 -145.367767 38.845918 -107.132548 -0.589185 1.328070 -46.642914 7.125000 0.000000 0.000000 
